<?xml version="1.0" encoding="utf-8"?>
<!-- Generator: Adobe Illustrator 15.0.0, SVG Export Plug-In . SVG Version: 6.00 Build 0)  -->
<!DOCTYPE svg PUBLIC "-//W3C//DTD SVG 1.1//EN" "http://www.w3.org/Graphics/SVG/1.1/DTD/svg11.dtd">
<svg version="1.1" id="Layer_1" xmlns="http://www.w3.org/2000/svg" xmlns:xlink="http://www.w3.org/1999/xlink" x="0px" y="0px"
	 width="179px" height="242px" viewBox="0 0 179 242" enable-background="new 0 0 179 242" xml:space="preserve">
<g>
	<g>
		<path fill="#EEEFEF" d="M171.189,231.706c0,0.956-0.773,1.73-1.729,1.73H14.54c-0.956,0-1.73-0.774-1.73-1.73V13.801
			c0-0.956,0.774-1.73,1.73-1.73h154.921c0.955,0,1.729,0.774,1.729,1.73V231.706z"/>
		<path fill="#E6E7E8" d="M164.656,231.706c0,0.956-0.711,1.73-1.588,1.73H20.933c-0.876,0-1.587-0.774-1.587-1.73V13.801
			c0-0.956,0.71-1.73,1.587-1.73h142.136c0.877,0,1.588,0.774,1.588,1.73V231.706z"/>
	</g>
	<g>
		<g>
			<circle fill="#F1F1F2" cx="92.001" cy="122.754" r="59.585"/>
			<circle fill="#E6E7E8" cx="92" cy="122.754" r="56.894"/>
			<circle fill="#D9DBDC" cx="92" cy="122.754" r="39.595"/>
			<circle fill="#00A3CA" cx="92" cy="122.754" r="36.135"/>
		</g>
		<g>
			<g>
				<path fill="#AEAEAE" d="M12.81,205.92v24.057c0,0.955,0.774,1.729,1.73,1.729h154.921c0.955,0,1.729-0.774,1.729-1.729V205.92
					H12.81z"/>
				<path fill="#E6E7E8" d="M12.81,207.649v24.057c0,0.956,0.774,1.73,1.73,1.73h154.921c0.955,0,1.729-0.774,1.729-1.73v-24.057
					H12.81z"/>
			</g>
			<g>
				<g>
					<path fill="#D9DBDC" d="M169.461,12.071H14.54c-0.956,0-1.73,0.774-1.73,1.73v40.88h158.379v-40.88
						C171.189,12.845,170.416,12.071,169.461,12.071z"/>
					<path fill="#E6E7E8" d="M166.828,12.071H17.172c-0.923,0-1.671,0.726-1.671,1.621V51.99H168.5V13.692
						C168.5,12.797,167.752,12.071,166.828,12.071z"/>
				</g>
				<g>
					<path fill="#525152" d="M127.443,28.388c0,4.235-3.432,7.668-7.668,7.668h-33.19c-4.235,0-7.668-3.433-7.668-7.668l0,0
						c0-4.234,3.433-7.667,7.668-7.667h33.19C124.012,20.721,127.443,24.153,127.443,28.388L127.443,28.388z"/>
					<path fill="#6B6869" d="M119.775,20.721h-33.19c-3.538,0-6.516,2.396-7.401,5.655c0.885,3.258,3.863,5.655,7.401,5.655h33.19
						c3.539,0,6.518-2.397,7.402-5.655C126.293,23.117,123.314,20.721,119.775,20.721z"/>
				</g>
				<g>
					<circle fill="#D9DBDC" cx="145.666" cy="28.388" r="7.98"/>
					<g>
						<circle fill="#F1F1F2" cx="145.667" cy="28.388" r="5.919"/>
						<circle fill="#E6E7E8" cx="145.667" cy="28.388" r="4.665"/>
					</g>
				</g>
				<g>
					<g>
						<path fill="#D9DBDC" d="M73.014,47.144c0,2.102-1.705,3.806-3.806,3.806H20.737c-2.102,0-3.806-1.705-3.806-3.806V21.166
							c0-2.102,1.704-3.806,3.806-3.806h48.471c2.101,0,3.806,1.704,3.806,3.806V47.144z"/>
						<path fill="#E6E7E8" d="M71.88,46.4c0,1.982-1.635,3.588-3.652,3.588H21.717c-2.018,0-3.652-1.606-3.652-3.588V21.909
							c0-1.982,1.634-3.588,3.652-3.588h46.511c2.017,0,3.652,1.606,3.652,3.588V46.4z"/>
					</g>
					<g>
						<path fill="#D0D2D3" d="M24.703,38.015v3.697c0,2.102,1.704,3.806,3.806,3.806h32.928c2.101,0,3.806-1.704,3.806-3.806v-3.697
							H24.703z"/>
						<path fill="#D9DBDC" d="M24.703,39.752c0,2.103,1.704,3.806,3.806,3.806h32.928c2.101,0,3.806-1.704,3.806-3.806v-1.737
							h-40.54V39.752z"/>
					</g>
				</g>
			</g>
		</g>
	</g>
</g>
</svg>
